<mxfile host="app.diagrams.net" modified="2023-06-19T14:36:18.332Z" agent="Mozilla/5.0 (Macintosh; Intel Mac OS X 10_15_7) AppleWebKit/537.36 (KHTML, like Gecko) Chrome/114.0.0.0 Safari/537.36" etag="LjWPMVusrFBIZ1rFh02l" version="21.3.8" type="device">
  <diagram name="Page-1" id="qjwbG5vdLO-d9LvDdd2G">
    <mxGraphModel dx="1114" dy="676" grid="1" gridSize="10" guides="1" tooltips="1" connect="1" arrows="1" fold="1" page="1" pageScale="1" pageWidth="850" pageHeight="1100" math="0" shadow="0">
      <root>
        <mxCell id="0" />
        <mxCell id="1" parent="0" />
      </root>
    </mxGraphModel>
  </diagram>
</mxfile>
